<svg width="40" height="40" viewBox="0 0 44 36" fill="none" xmlns="http://www.w3.org/2000/svg">
<path d="M15.5832 15.5833C17.8844 15.5833 19.7498 13.7179 19.7498 11.4167C19.7498 9.11548 17.8844 7.25 15.5832 7.25C13.282 7.25 11.4165 9.11548 11.4165 11.4167C11.4165 13.7179 13.282 15.5833 15.5832 15.5833Z" stroke="black" stroke-width="1.5"/>
<path d="M23.9167 23.9167C23.9167 26.2187 23.9167 28.0833 15.5833 28.0833C7.25 28.0833 7.25 26.2187 7.25 23.9167C7.25 21.6146 10.9792 19.75 15.5833 19.75C20.1875 19.75 23.9167 21.6146 23.9167 23.9167Z" stroke="black" stroke-width="1.5"/>
<path d="M1 17.6667C1 9.81042 1 5.88125 3.44167 3.44167C5.88333 1.00208 9.81042 1 17.6667 1H26C33.8563 1 37.7854 1 40.225 3.44167C42.6646 5.88333 42.6667 9.81042 42.6667 17.6667C42.6667 25.5229 42.6667 29.4521 40.225 31.8917C37.7833 34.3312 33.8563 34.3333 26 34.3333H17.6667C9.81042 34.3333 5.88125 34.3333 3.44167 31.8917C1.00208 29.45 1 25.5229 1 17.6667Z" stroke="black" stroke-width="1.5"/>
<path d="M36.4167 17.6666H28.0833M36.4167 11.4166H26M36.4167 23.9166H30.1667" stroke="black" stroke-width="1.5" stroke-linecap="round"/>
</svg>
