<svg width="30" height="30" viewBox="0 0 35 35" fill="none" xmlns="http://www.w3.org/2000/svg">
<path d="M24.7917 28.029H7.29167V10.2082H17.5V7.2915H7.29167C5.6875 7.2915 4.375 8.604 4.375 10.2082V27.7082C4.375 29.3123 5.6875 30.6248 7.29167 30.6248H24.7917C26.3958 30.6248 27.7083 29.3123 27.7083 27.7082V17.4998H24.7917V28.029Z" fill="black"/>
<path d="M27.7085 2.9165H24.7918V7.2915H20.4168C20.4314 7.30609 20.4168 10.2082 20.4168 10.2082H24.7918V14.5686C24.8064 14.5832 27.7085 14.5686 27.7085 14.5686V10.2082H32.0835V7.2915H27.7085V2.9165ZM10.2085 13.1248H21.8752V16.0415H10.2085V13.1248ZM10.2085 17.4998V20.4165H21.8752V17.4998H17.5002H10.2085ZM10.2085 21.8748H21.8752V24.7915H10.2085V21.8748Z" fill="black"/>
</svg>
