<svg width="40" height="40" viewBox="0 0 46 34" fill="none" xmlns="http://www.w3.org/2000/svg">
<path d="M16.6668 0C18.877 0 20.9966 0.877973 22.5594 2.44078C24.1222 4.00358 25.0002 6.1232 25.0002 8.33333C25.0002 10.5435 24.1222 12.6631 22.5594 14.2259C20.9966 15.7887 18.877 16.6667 16.6668 16.6667C14.4567 16.6667 12.3371 15.7887 10.7743 14.2259C9.21147 12.6631 8.3335 10.5435 8.3335 8.33333C8.3335 6.1232 9.21147 4.00358 10.7743 2.44078C12.3371 0.877973 14.4567 0 16.6668 0ZM16.6668 3.95833C16.0923 3.95833 15.5234 4.0715 14.9926 4.29136C14.4618 4.51122 13.9795 4.83348 13.5732 5.23974C13.167 5.646 12.8447 6.12829 12.6249 6.65909C12.405 7.18989 12.2918 7.7588 12.2918 8.33333C12.2918 8.90787 12.405 9.47677 12.6249 10.0076C12.8447 10.5384 13.167 11.0207 13.5732 11.4269C13.9795 11.8332 14.4618 12.1554 14.9926 12.3753C15.5234 12.5952 16.0923 12.7083 16.6668 12.7083C17.2414 12.7083 17.8103 12.5952 18.3411 12.3753C18.8719 12.1554 19.3542 11.8332 19.7604 11.4269C20.1667 11.0207 20.4889 10.5384 20.7088 10.0076C20.9287 9.47677 21.0418 8.90787 21.0418 8.33333C21.0418 7.17301 20.5809 6.06021 19.7604 5.23974C18.94 4.41927 17.8272 3.95833 16.6668 3.95833ZM39.5835 6.25V12.5H45.8335V16.6667H39.5835V22.9167H35.4168V16.6667H29.1668V12.5H35.4168V6.25H39.5835ZM16.6668 18.75C22.2293 18.75 33.3335 21.5208 33.3335 27.0833V33.3333H0.000164032V27.0833C0.000164032 21.5208 11.1043 18.75 16.6668 18.75ZM16.6668 22.7083C10.4793 22.7083 3.9585 25.75 3.9585 27.0833V29.375H29.3752V27.0833C29.3752 25.75 22.9168 22.7083 16.6668 22.7083Z" fill="white"/>
</svg>
