<svg width="40" height="40" viewBox="0 0 55 54" fill="none" xmlns="http://www.w3.org/2000/svg">
<path d="M6.87516 29.065H9.16683V44.7154C9.16683 47.1815 11.2225 49.187 13.7502 49.187H41.2502C43.7779 49.187 45.8335 47.1815 45.8335 44.7154V29.065H48.1252C48.5783 29.0649 49.0213 28.9337 49.3981 28.6881C49.7749 28.4424 50.0685 28.0932 50.2419 27.6848C50.4153 27.2763 50.4607 26.8268 50.3723 26.3932C50.284 25.9596 50.0658 25.5612 49.7454 25.2486L29.1204 5.1266C28.9077 4.91879 28.6552 4.75393 28.3772 4.64145C28.0992 4.52897 27.8011 4.47107 27.5002 4.47107C27.1992 4.47107 26.9012 4.52897 26.6232 4.64145C26.3451 4.75393 26.0926 4.91879 25.88 5.1266L5.25495 25.2486C4.93456 25.5612 4.71638 25.9596 4.62799 26.3932C4.53961 26.8268 4.58499 27.2763 4.7584 27.6848C4.93181 28.0932 5.22546 28.4424 5.60224 28.6881C5.97901 28.9337 6.42199 29.0649 6.87516 29.065ZM22.9168 44.7154V33.5366H32.0835V44.7154H22.9168ZM27.5002 9.86867L41.2502 23.2833V33.5366L41.2525 44.7154H36.6668V33.5366C36.6668 31.0705 34.6112 29.065 32.0835 29.065H22.9168C20.3891 29.065 18.3335 31.0705 18.3335 33.5366V44.7154H13.7502V23.2833L27.5002 9.86867Z" fill="white"/>
</svg>
