<svg width="40" height="40" viewBox="0 0 55 55" fill="none" xmlns="http://www.w3.org/2000/svg">
<path d="M10.3151 26.6406C9.03178 26.6406 7.94706 26.1975 7.06095 25.3114C6.17331 24.4253 5.72949 23.3413 5.72949 22.0595C5.72949 20.7777 6.17255 19.693 7.05866 18.8054C7.94477 17.9177 9.02873 17.4739 10.3105 17.4739C11.5923 17.4739 12.6771 17.917 13.5647 18.8031C14.4523 19.6892 14.8962 20.7732 14.8962 22.055C14.8962 23.3368 14.4531 24.4215 13.567 25.3091C12.6809 26.1968 11.5969 26.6406 10.3151 26.6406ZM20.6276 17.4739C19.3443 17.4739 18.2596 17.0309 17.3735 16.1448C16.4858 15.2586 16.042 14.1747 16.042 12.8929C16.042 11.6111 16.485 10.5263 17.3712 9.63871C18.2573 8.75107 19.3412 8.30725 20.623 8.30725C21.9048 8.30725 22.9896 8.75031 23.8772 9.63642C24.7648 10.5225 25.2087 11.6065 25.2087 12.8883C25.2087 14.1701 24.7656 15.2548 23.8795 16.1425C22.9934 17.0301 21.9094 17.4739 20.6276 17.4739ZM34.3776 17.4739C33.0943 17.4739 32.0096 17.0309 31.1235 16.1448C30.2358 15.2586 29.792 14.1747 29.792 12.8929C29.792 11.6111 30.235 10.5263 31.1212 9.63871C32.0073 8.75107 33.0912 8.30725 34.373 8.30725C35.6548 8.30725 36.7396 8.75031 37.6272 9.63642C38.5148 10.5225 38.9587 11.6065 38.9587 12.8883C38.9587 14.1701 38.5156 15.2548 37.6295 16.1425C36.7434 17.0301 35.6594 17.4739 34.3776 17.4739ZM44.6901 26.6406C43.4068 26.6406 42.3221 26.1975 41.436 25.3114C40.5483 24.4253 40.1045 23.3413 40.1045 22.0595C40.1045 20.7777 40.5476 19.693 41.4337 18.8054C42.3198 17.9177 43.4037 17.4739 44.6855 17.4739C45.9673 17.4739 47.0521 17.917 47.9397 18.8031C48.8273 19.6892 49.2712 20.7732 49.2712 22.055C49.2712 23.3368 48.8281 24.4215 47.942 25.3091C47.0559 26.1968 45.9719 26.6406 44.6901 26.6406ZM15.2399 49.5573C13.8145 49.5573 12.6373 49.0118 11.7085 47.921C10.778 46.8317 10.3128 45.5438 10.3128 44.0573C10.3128 42.1888 10.969 40.5907 12.2814 39.2631C13.5922 37.9339 14.8725 36.5879 16.1222 35.2252C17.2298 34.0121 18.1923 32.7158 19.0097 31.3362C19.8255 29.9566 20.7728 28.6557 21.8514 27.4335C22.603 26.5871 23.454 25.8614 24.4043 25.2564C25.3546 24.6514 26.3866 24.3489 27.5003 24.3489C28.6462 24.3489 29.708 24.6392 30.6857 25.2198C31.6635 25.8034 32.5145 26.5329 33.2387 27.4083C34.3081 28.6305 35.2462 29.9329 36.0528 31.3156C36.8595 32.6998 37.8021 34.0029 38.8807 35.2252C40.1289 36.5879 41.4085 37.9339 42.7193 39.2631C44.0316 40.5907 44.6878 42.1888 44.6878 44.0573C44.6878 45.5438 44.2226 46.8317 43.2922 47.921C42.3633 49.0118 41.1862 49.5573 39.7607 49.5573C37.6982 49.5573 35.6548 49.3854 33.6305 49.0416C31.6062 48.6979 29.5628 48.526 27.5003 48.526C25.4378 48.526 23.3944 48.6979 21.3701 49.0416C19.3458 49.3854 17.3024 49.5573 15.2399 49.5573Z" fill="white"/>
</svg>
