<svg width="35" height="35" viewBox="0 0 55 54" fill="none" xmlns="http://www.w3.org/2000/svg">
<path d="M27 2C30.3152 2 33.4946 3.31696 35.8388 5.66116C38.183 8.00537 39.5 11.1848 39.5 14.5C39.5 17.8152 38.183 20.9946 35.8388 23.3388C33.4946 25.683 30.3152 27 27 27C23.6848 27 20.5054 25.683 18.1612 23.3388C15.817 20.9946 14.5 17.8152 14.5 14.5C14.5 11.1848 15.817 8.00537 18.1612 5.66116C20.5054 3.31696 23.6848 2 27 2ZM27 8.25C25.3424 8.25 23.7527 8.90848 22.5806 10.0806C21.4085 11.2527 20.75 12.8424 20.75 14.5C20.75 16.1576 21.4085 17.7473 22.5806 18.9194C23.7527 20.0915 25.3424 20.75 27 20.75C28.6576 20.75 30.2473 20.0915 31.4194 18.9194C32.5915 17.7473 33.25 16.1576 33.25 14.5C33.25 12.8424 32.5915 11.2527 31.4194 10.0806C30.2473 8.90848 28.6576 8.25 27 8.25ZM27 30.125C35.3438 30.125 52 34.2812 52 42.625V52H2V42.625C2 34.2812 18.6562 30.125 27 30.125ZM27 36.0625C17.7187 36.0625 7.9375 40.625 7.9375 42.625V46.0625H46.0625V42.625C46.0625 40.625 36.2813 36.0625 27 36.0625Z" fill="white"/>
</svg>
