<svg width="40" height="40" viewBox="0 0 55 55" fill="none" xmlns="http://www.w3.org/2000/svg">
<path d="M37.6297 38.8704L38.8953 37.5975C44.7509 37.7911 44.8409 37.5832 45.0983 36.9738L46.707 33.0085L46.8266 32.6326L46.6958 32.3037C46.6269 32.13 46.4145 31.6117 42.7583 28.082V26.2254C46.977 22.1105 46.887 21.8998 46.6466 21.2975L45.0448 17.2908C44.8044 16.69 44.713 16.455 38.8995 16.6159L37.6339 15.2918C37.7662 13.3413 37.6998 11.3822 37.4356 9.44554L37.2725 9.07107L33.0903 7.22009C32.4744 6.93533 32.2578 6.83281 28.3091 11.1869L26.5344 11.1598C22.4689 6.76589 22.2762 6.84563 21.6673 7.0948L17.7791 8.68664C17.1702 8.93581 16.955 9.02408 17.1913 15.0042L15.9355 16.2714C10.0827 16.0777 9.99266 16.2885 9.73813 16.895L8.12656 20.8618L8 21.242L8.13219 21.5723C8.20109 21.7431 8.405 22.2557 12.0697 25.7897V27.6406C7.85094 31.7555 7.94234 31.9662 8.18422 32.5699L9.78453 36.5809C10.0292 37.1945 10.1164 37.4124 15.9284 37.2586L17.1941 38.5899C17.0625 40.5373 17.127 42.4933 17.3867 44.4276L17.5498 44.8049L21.7588 46.6672C22.3705 46.9264 22.5828 47.0189 26.5203 42.6805L28.295 42.7033C32.3661 47.1029 32.5742 47.0175 33.1691 46.774L37.0489 45.1865C37.662 44.9401 37.8758 44.8533 37.6297 38.8704ZM20.9544 29.5813C20.4637 28.2829 20.3626 26.8666 20.664 25.5102C20.9653 24.1538 21.6555 22.9178 22.6481 21.9571C23.6407 20.9965 24.8913 20.354 26.2432 20.1104C27.595 19.8667 28.9879 20.0327 30.2469 20.5876C31.5059 21.1424 32.575 22.0614 33.3201 23.2292C34.0652 24.397 34.453 25.7615 34.435 27.1517C34.417 28.5418 33.9939 29.8956 33.2188 31.0432C32.4437 32.1908 31.3511 33.081 30.0781 33.6022C28.3413 34.2899 26.4062 34.2529 24.6962 33.4993C22.9863 32.7457 21.6408 31.3369 20.9544 29.5813Z" fill="white"/>
</svg>
