<svg width="40" height="40" viewBox="0 0 46 38" fill="none" xmlns="http://www.w3.org/2000/svg">
<path d="M4.25016 19C1.9585 19 0.0834961 17.125 0.0834961 14.8333V4.41667C0.0834961 2.125 1.9585 0.25 4.25016 0.25H20.9168C23.2085 0.25 25.0835 2.125 25.0835 4.41667V14.8333C25.0835 17.125 23.2085 19 20.9168 19H16.7502V25.25L10.5002 19H4.25016ZM41.7502 31.5C44.0418 31.5 45.9168 29.625 45.9168 27.3333V16.9167C45.9168 14.625 44.0418 12.75 41.7502 12.75H29.2502V14.8333C29.2502 19.4167 25.5002 23.1667 20.9168 23.1667V27.3333C20.9168 29.625 22.7918 31.5 25.0835 31.5H29.2502V37.75L35.5002 31.5H41.7502Z" fill="white"/>
</svg>
