<svg width="40" height="40" viewBox="0 0 50 50" fill="none" xmlns="http://www.w3.org/2000/svg">
<path d="M25.0005 0C16.825 0 10.125 6.68 10.125 14.833C10.125 17.992 11.134 20.928 12.8415 23.341L23.185 41.2225C24.6335 43.115 25.5965 42.7555 26.801 41.1225L38.21 21.7075C38.44 21.2905 38.621 20.8465 38.7785 20.393C39.5022 18.6287 39.8745 16.74 39.8745 14.833C39.875 6.68 33.177 0 25.0005 0ZM25.0005 6.95C29.4035 6.95 32.9045 10.443 32.9045 14.833C32.9045 19.223 29.4035 22.715 25.0005 22.715C20.598 22.715 17.0955 19.224 17.0955 14.8335C17.0955 10.443 20.598 6.9505 25 6.9505" fill="white"/>
<path d="M34.4565 24.454L34.4325 24.517L34.4535 24.4595L34.4565 24.454ZM17.003 34.5285C9.94 35.5265 5 37.914 5 41.4285C5 46.1625 13.254 50 25 50C36.746 50 45 46.1625 45 41.4285C45 37.914 40.0605 35.5265 32.998 34.5285L32.0195 36.1945C37.3425 36.933 41 38.485 41 40.286C41 42.811 33.8365 44.8575 25 44.8575C16.1635 44.8575 9 42.811 9 40.286C8.9995 38.491 12.633 36.9405 17.9725 36.199L17.003 34.5285Z" fill="white"/>
</svg>
